# xmcd
# 
# Track frame offsets:
#     150
#     17000
#     36355
#     50278
#     64150
# 
# Disc length: 1206
# 
# Revision: 2
# Processed by: cddbd v1.5.2PL0 Copyright (c) Steve Scherf et al.
# Submitted via: BonkEnc v1.0.15
# 
DISCID=3b04b405
DTITLE=Autopsy - The Tomb Within
DYEAR=2010
DGENRE=Death Metal
TTITLE0=The Tomb Within
TTITLE1=My Corpse Shall Rise
TTITLE2=Seven Skulls
TTITLE3=Human Genocide
TTITLE4=Mutant Village
EXTD=
EXTT0=
EXTT1=
EXTT2=
EXTT3=
EXTT4=
PLAYORDER=
